<?xml version="1.0" encoding="iso-8859-1"?>
<!-- Uploaded to: SVG Repo, www.svgrepo.com, Generator: SVG Repo Mixer Tools -->
<svg fill="#000000" height="800px" width="800px" version="1.1" id="Capa_1" xmlns="http://www.w3.org/2000/svg" xmlns:xlink="http://www.w3.org/1999/xlink" 
	 viewBox="0 0 488.4 488.4" xml:space="preserve">
<g>
	<path d="M12.7,297.05L0.1,174.15c-0.6-6.1,1.5-12.3,6.2-16.1c5.7-4.6,14.7-6.3,21.4,1.3c4.7,5.4,7,22.2,7.8,26.7
		c2.7,16.1,5.4,39.1,5.8,55.3c0,1.1,0.1,2.6,0.2,3.7c0.4,7.1,2.1,13.7,5.1,20.2c16.4,35.6,49.3,80.6,49.3,80.6l1.8,2.7
		c1.4,2,4.1,2.7,6.3,1.5c2.4-1.3,3.2-4.4,1.8-6.7l-43.6-71.1c-4.7-7.9-2-19.1,6.5-24.3c8.5-5.2,19.7-2.6,24.4,5.3l45.3,58.2
		c3,3.8,8.5,9.3,12.4,12.1c40.7,29.3,46.2,59.1,49.8,74.3c0,0,0.3,3.4,0.4,8.3l0,0l0,0c0,4.1-0.1,9.2-0.8,14.3l-2.7,48.9
		c0,3.6-2.9,6.5-6.5,6.5l-76.6-0.4c-3.6,0-6.5-2.9-6.5-6.5l-1.4-40.4l-72.7-87.6c-10.7-11.4-18-24.2-20.3-39.6L12.7,297.05z
		 M54.9,233.05c0,1.4,0.1,2.7,0.1,4.1c1.5-1.3,3.1-2.6,4.9-3.7c2.2-1.4,4.5-2.4,6.9-3.2c0.1-0.2,0.2-0.3,0.3-0.4
		c-1.7-12.7-6.2-36.7-9.5-49.1c-1.7-6.2-5.3-10.8-11.6-12.8c1.3,4.3,2.2,8.7,2.9,12.9C51.2,194.75,54.6,219.75,54.9,233.05z
		 M79.5,226.65c0.1,0.6,0.1,1.2,0.1,1.8c3.7,0.1,7.4,0.9,10.9,2.2c-1.2-8.2-6.7-24.6-8.7-32.3c-1.6-6.2-5.2-10.7-11.4-12.8
		c2,9.2,7.2,26.1,8.4,35.1L79.5,226.65z M337.6,323.65c-40.7,29.3-46.2,59.1-49.8,74.3c0,0-0.3,3.4-0.4,8.3l0,0
		c0,4.1,0.1,9.2,0.8,14.3l2.7,48.9c0,3.6,2.9,6.5,6.5,6.5l76.6-0.4c3.6,0,6.5-2.9,6.5-6.5l1.4-40.4l72.7-87.6
		c10.7-11.4,18-24.2,20.3-39.6l0.7-4.5l12.7-122.9c0.6-6.1-1.5-12.3-6.2-16.1c-5.7-4.6-14.7-6.3-21.4,1.3c-4.7,5.4-7,22.2-7.8,26.7
		c-2.7,16.1-5.4,39.1-5.8,55.3c0,1.1-0.1,2.6-0.2,3.7c-0.4,7.1-2.1,13.7-5.1,20.2c-16.4,35.6-49.3,80.6-49.3,80.6l-1.8,2.7
		c-1.4,2-4.1,2.7-6.3,1.5c-2.4-1.3-3.2-4.4-1.8-6.7l43.6-71c4.7-7.9,2-19.1-6.5-24.3c-8.5-5.2-19.7-2.6-24.4,5.3l-45.3,58.2
		C347.1,315.35,341.5,320.85,337.6,323.65z M428.5,233.55c1.8,1.1,3.4,2.3,4.9,3.7c0-1.4,0.1-2.7,0.1-4.1c0.3-13.3,3.7-38.4,6-52.3
		c0.7-4.2,1.5-8.5,2.9-12.9c-6.3,2.1-10,6.6-11.6,12.8c-3.3,12.4-7.8,36.4-9.5,49.1c0.1,0.2,0.2,0.3,0.3,0.4
		C424,231.15,426.3,232.15,428.5,233.55z M408.8,226.65l0.8-6.1c1.2-8.9,6.3-25.8,8.4-35.1c-6.2,2.1-9.8,6.6-11.4,12.8
		c-2,7.7-7.5,24.1-8.7,32.3c3.5-1.3,7.2-2,10.9-2.2C408.8,227.85,408.8,227.25,408.8,226.65z M386.5,221.05c0-6-4.8-10.8-10.8-10.8
		H116.2c-6,0-10.8,4.8-10.8,10.8s4.8,10.8,10.8,10.8h259.5C381.7,231.85,386.5,227.05,386.5,221.05z M135.4,270.95H337
		c6,0,10.8-4.8,10.8-10.8c0-6-4.8-10.8-10.8-10.8H135.4c-6,0-10.8,4.8-10.8,10.8C124.6,266.15,129.4,270.95,135.4,270.95z
		 M171.5,310.15h129.3c6,0,10.8-4.8,10.8-10.8s-4.8-10.8-10.8-10.8H171.5c-6,0-10.8,4.8-10.8,10.8S165.6,310.15,171.5,310.15z
		 M324.8,118.15c8.5,0,15.3-6.9,15.3-15.3c0-8.5-6.9-15.3-15.3-15.3c-8.5,0-15.3,6.9-15.3,15.3
		C309.4,111.25,316.3,118.15,324.8,118.15z M163.6,118.15c8.5,0,15.3-6.9,15.3-15.3c0-8.5-6.9-15.3-15.3-15.3
		c-8.5,0-15.3,6.9-15.3,15.3C148.3,111.25,155.2,118.15,163.6,118.15z M98.3,167.85V37.75c0-13.9,11.3-25.3,25.3-25.3h241.2
		c13.9,0,25.3,11.3,25.3,25.3v130.1c0,13.9-11.3,25.3-25.3,25.3H123.6C109.7,193.05,98.3,181.75,98.3,167.85z M119.9,141.65
		c1.5-0.3,3-0.4,4.5-0.4c14.1,0,25.6,11.5,25.6,25.6c0,1.6-0.2,3.2-0.4,4.7h187.2c-0.1-1-0.2-2.1-0.2-3.2
		c0-14.1,11.5-25.6,25.6-25.6c2.2,0,4.3,0.3,6.3,0.8v-78.5c-2,0.5-4.1,0.8-6.3,0.8c-14.1,0-25.6-11.5-25.6-25.6
		c0-2.2,0.3-4.2,0.8-6.2H149.5c0.3,1.5,0.4,3.1,0.4,4.7c0,14.1-11.5,25.6-25.6,25.6c-1.5,0-3-0.1-4.5-0.4v77.7H119.9z M188.7,102.75
		c0-30.6,24.9-55.5,55.5-55.5s55.5,24.9,55.5,55.5s-24.9,55.5-55.5,55.5S188.7,133.35,188.7,102.75z M280.4,122.85h-10.9
		c-2.2,7.3-5.5,13.2-8.9,17.9C269,137.15,275.9,130.75,280.4,122.85z M271.4,91.05c0.6,3.6,1,7.5,1,11.7s-0.4,8.1-1,11.7h12.5
		c1.1-3.7,1.7-7.7,1.7-11.7c0-4.1-0.6-8-1.7-11.7H271.4z M260.6,64.75c3.4,4.7,6.6,10.7,8.9,17.9h10.9
		C275.9,74.75,269,68.45,260.6,64.75z M248.4,82.75h12.3c-3.3-9-8.3-15.5-12.3-19.5V82.75z M248.4,114.55H263
		c0.7-3.6,1.1-7.5,1.1-11.7s-0.4-8.1-1.1-11.7h-14.6V114.55z M248.4,142.35c4-4,9.1-10.5,12.3-19.6h-12.3V142.35z M227.8,140.75
		c-3.4-4.7-6.6-10.7-8.9-17.9H208C212.5,130.75,219.4,137.15,227.8,140.75z M240,122.85h-12.3c3.3,9,8.3,15.5,12.3,19.5V122.85z
		 M240,91.05h-14.6c-0.7,3.6-1.1,7.5-1.1,11.7s0.4,8.1,1.1,11.7H240V91.05z M240,63.15c-4,4-9.1,10.5-12.3,19.6H240V63.15z
		 M208,82.75h10.9c2.2-7.3,5.5-13.2,8.9-17.9C219.4,68.45,212.5,74.75,208,82.75z M204.5,114.55H217c-0.6-3.6-1-7.5-1-11.7
		s0.4-8.1,1-11.7h-12.5c-1.1,3.7-1.7,7.7-1.7,11.7C202.8,106.85,203.4,110.75,204.5,114.55z"/>
</g>
</svg>