<?xml version="1.0" encoding="utf-8"?>
<!-- Generator: Adobe Illustrator 27.4.1, SVG Export Plug-In . SVG Version: 6.00 Build 0)  -->
<svg version="1.1" id="ALL" xmlns="http://www.w3.org/2000/svg" xmlns:xlink="http://www.w3.org/1999/xlink" x="0px" y="0px"
	 viewBox="0 0 500 500" style="enable-background:new 0 0 500 500;" xml:space="preserve">
<style type="text/css">
	.st0{fill:#EBEBEB;}
	.st1{fill:#E0E0E0;}
	.st2{fill:#F5F5F5;}
	.st3{fill:#455A64;}
	.st4{fill:#4CAB94;}
	.st5{fill:#263238;}
	.st6{fill:#FFBE9D;}
	.st7{fill:#EB996E;}
	.st8{opacity:0.78;}
	.st9{fill:#FFFFFF;}
	.st10{fill:#FAFAFA;}
	.st11{font-family:'RB-Regular';}
	.st12{font-size:17px;}
	.st13{fill:#6CD895;}
	.st14{fill:none;stroke:#000000;stroke-miterlimit:10;}
	.st15{fill:none;stroke:#FFFFFF;stroke-miterlimit:10;}
	.st16{fill:none;stroke:#263238;stroke-width:2;stroke-miterlimit:10;}
</style>
<g id="leaves">
	<path class="st0" d="M76.5,248.3c0,0-10.4,3.6,0.2,25.8s18.1,33.3,18.1,33.3s1.8,5.1-2.5,5.8s-13.7-1.1-15.8,4.1
		c-2.1,5.4,1.7,10.6,9.6,15.4s24.8,15.7,26.3,16.7s3,3.4,0.1,4.3s-24.2,2.6-22.8,12.6s25.5,19.6,28.2,20.7s3.2,2.2,3,3.7
		s-7.5,1.3-13.5,2s-12.9,2.6-11.6,8.3s15.4,18.1,50.4,22.5l16.4,1l9.2-13.6c18.1-30.3,17-49,13.3-53.6s-9.5-0.3-13.7,4
		s-8.6,10.1-9.9,9.4s-1.8-1.9-1.1-4.6s8.1-27.6,1-34.9s-21.5,8.5-24,10.2s-3.5-1-3.3-2.7s1.9-21.9,3-31s-0.6-15.4-6.2-17
		c-5.3-1.6-9.8,6.9-12.9,9.9s-6.1-1.6-6.1-1.6s-4.1-12.7-15.2-34.8s-20.3-15.8-20.3-15.8"/>
	<path class="st1" d="M163.3,428.5c-8-16.2-21.8-45.3-33.7-70.2s-22.8-47.4-30.7-63.7l-9.4-19.2l-2.6-5.2c-0.3-0.6-0.5-1-0.7-1.4
		s-0.2-0.5-0.2-0.5s0.1,0.1,0.2,0.5l0.7,1.3l2.7,5.2c2.3,4.5,5.6,11.1,9.6,19.2c8,16.2,18.9,38.7,30.9,63.6s25.7,54,33.6,70.3"/>
	<path class="st1" d="M89.6,320.4c0.4,0.1,0.8,0.2,1.1,0.4c0.7,0.3,1.8,0.6,3,1.1c2.5,1,6,2.5,9.8,4.2l9.7,4.4l2.9,1.3
		c0.4,0.1,0.7,0.3,1.1,0.5c-0.4-0.1-0.8-0.2-1.1-0.3c-0.7-0.3-1.7-0.6-3-1.2c-2.5-1-6-2.5-9.7-4.2l-9.7-4.3l-2.9-1.3
		C90.3,320.8,89.9,320.6,89.6,320.4z"/>
	<path class="st1" d="M118.3,331.3c-0.1,0,2.6-7.3,6.1-16.2s6.4-16.1,6.6-16.1s-2.6,7.3-6.1,16.2S118.5,331.3,118.3,331.3z"/>
	<path class="st1" d="M135,370.4c0.2-0.4,0.4-0.7,0.7-1l2-2.6c1.7-2.2,4-5.2,6.5-8.7s4.6-6.6,6.1-9l1.8-2.8c0.2-0.4,0.4-0.7,0.7-1
		c-0.1,0.4-0.3,0.7-0.5,1.1c-0.4,0.7-0.9,1.7-1.7,2.9c-1.4,2.4-3.5,5.6-6,9.1s-4.8,6.5-6.6,8.6c-0.9,1.1-1.6,1.9-2.1,2.5
		C135.6,369.8,135.3,370.1,135,370.4z"/>
	<path class="st1" d="M106.8,366.2c0.4,0,0.7,0,1.1,0l3,0.3c2.6,0.3,6.1,0.7,10,1.3s7.4,1,9.9,1.4l3,0.5c0.4,0,0.7,0.1,1.1,0.2
		c-0.4,0-0.7,0-1.1,0l-3-0.3c-2.5-0.3-6.1-0.7-9.9-1.2s-7.4-1-9.9-1.4l-3-0.5C107.6,366.4,107.2,366.3,106.8,366.2z"/>
	<path class="st1" d="M117.1,402.6c0.5,0,1,0,1.4,0.1l3.9,0.4c3.3,0.4,7.8,0.9,12.8,1.5s9.5,1.2,12.7,1.6l3.9,0.6
		c0.5,0,0.9,0.1,1.4,0.3c-0.5,0-1,0-1.4-0.1l-3.9-0.4c-3.3-0.4-7.8-0.9-12.8-1.5s-9.5-1.2-12.7-1.6l-3.8-0.6
		C118,402.8,117.6,402.7,117.1,402.6z"/>
	<path class="st1" d="M152.3,406.7c0.2-0.5,0.5-0.9,0.8-1.3c0.6-0.9,1.4-2,2.4-3.4c2-2.9,4.9-6.8,7.9-11.3s5.6-8.6,7.4-11.6l2.2-3.5
		c0.3-0.4,0.5-0.9,0.9-1.3c-0.2,0.5-0.4,0.9-0.7,1.4c-0.5,0.9-1.2,2.1-2.1,3.6c-1.8,3-4.3,7.2-7.3,11.6s-5.9,8.4-8,11.2
		c-1.1,1.4-1.9,2.5-2.6,3.3C153,406,152.7,406.3,152.3,406.7z"/>
	<path class="st2" d="M340.8,375c-25.4-12.5-35.1-41.5-38.2-68.3c-0.5-4.5-1.7-9.1-0.2-13.4s6.1-7.7,10.4-6.4
		c3.6,1.1,5.6,4.7,7.9,7.6c3.1,3.9,7.3,6.8,12,8.4c3.1,1,6.7,1.4,9.3-0.6c3.5-2.7,3.2-8.1,2.5-12.5l-3.9-24.8
		c-0.7-4.4-1.4-9-0.7-13.4s3.2-8.8,7.2-10.6s9.6-0.2,11.2,4c0.6,1.8,0.6,3.7,1,5.5s1.6,3.7,3.4,4s3.4-1.3,4.6-2.8
		c3.9-5.2,6.1-11.4,8.2-17.6s4-12.5,7.4-18s8.6-10.3,14.9-11.6s13.7,1.6,16.2,7.6s-0.1,12.9-3.3,18.6c-4.7,8.4-10.7,16.1-17.6,22.8
		c-1.2,1.2-2.6,2.5-2.9,4.2c-0.5,3.1,2.7,5.6,5.8,6.1c3.5,0.6,7-0.3,10.5-0.4s7.5,0.8,9.3,3.9c2.5,4.3-0.6,9.6-3.8,13.3
		c-6.5,7.4-14.3,13.6-22.9,18.4c-3.1,1.7-6.4,3.3-8.6,6s-3.3,6.9-1.2,9.8s6.3,3.3,9.6,2.1s6.1-3.5,9.2-5.2c5.8-3.2,13.7-4,18.4,0.7
		c3.1,3.1,4,7.9,3.4,12.2s-2.8,8.3-5.1,12c-8,13-19.1,24.1-32.5,31.1S355.6,378,340.8,375"/>
	<path class="st1" d="M345.1,357.2c2.2-15.2,5.3-30.3,9.3-45.2c1-4,2-7.9,3-11.7c1-3.9,2-7.7,3.2-11.3c2.3-7,5-14,8.1-20.7
		c2.9-6.5,5.9-12.5,8.7-18.1s5.6-10.8,8.3-15.4c4.3-7.3,9.1-14.2,14.5-20.8c1.9-2.3,3.4-4.1,4.5-5.2c0.5-0.6,0.9-1,1.2-1.3
		c0.1-0.2,0.3-0.3,0.4-0.4c-0.1,0.2-0.2,0.3-0.4,0.5l-1.1,1.4c-1,1.2-2.5,3-4.3,5.3c-5.2,6.6-10,13.6-14.2,20.9
		c-2.7,4.6-5.4,9.8-8.2,15.4c-2.8,5.6-5.8,11.6-8.7,18.1c-3.1,6.7-5.7,13.6-8.1,20.6c-1.2,3.6-2.2,7.4-3.2,11.3s-2,7.8-3,11.7
		c-3.9,14.9-7.1,29.9-9.3,45.1"/>
	<path class="st1" d="M360.9,288.9c-0.3-0.6-0.6-1.2-0.7-1.8c-0.4-1.2-1-2.9-1.6-5.1c-1.3-4.3-2.9-10.4-4.6-17s-3.4-12.6-4.8-16.9
		c-0.7-2.1-1.2-3.9-1.6-5.1c-0.2-0.6-0.4-1.3-0.5-1.9c0.3,0.6,0.6,1.2,0.8,1.8c0.5,1.2,1.1,2.9,1.9,5c1.5,4.3,3.3,10.3,5,16.9
		s3.2,12.5,4.4,17.1c0.5,2,1,3.8,1.4,5.2C360.7,287.5,360.8,288.2,360.9,288.9z"/>
	<path class="st1" d="M416.3,269.5c-0.7,0.3-1.5,0.5-2.2,0.6c-1.4,0.4-3.5,0.9-6.1,1.6c-5.1,1.4-12.2,3.5-19.8,6.2
		s-14.5,5.4-19.4,7.6c-2.4,1-4.4,1.9-5.8,2.5c-0.7,0.4-1.4,0.7-2.1,0.9c0.6-0.5,1.3-0.9,2-1.2c1.3-0.7,3.2-1.7,5.7-2.8
		c4.8-2.3,11.6-5.1,19.3-7.8c6.6-2.3,13.2-4.3,20-6c2.6-0.6,4.7-1,6.2-1.3C414.8,269.6,415.5,269.5,416.3,269.5z"/>
	<path class="st1" d="M345.7,356c-0.2-0.2-0.4-0.4-0.5-0.6c-0.4-0.5-0.8-1.1-1.3-1.9c-1.1-1.7-2.7-4.1-4.5-7.2
		c-3.8-6.1-8.7-14.7-14-24.3s-10.1-18.2-13.7-24.4l-4.3-7.3l-1.2-2c-0.2-0.2-0.3-0.5-0.4-0.7c0.2,0.2,0.4,0.4,0.5,0.6l1.3,1.9
		c1.1,1.7,2.7,4.1,4.5,7.2c3.8,6.1,8.7,14.7,14,24.3s10.1,18.2,13.7,24.4l4.3,7.3c0.5,0.8,0.8,1.5,1.2,2
		C345.5,355.5,345.6,355.7,345.7,356z"/>
	<path class="st1" d="M417.8,320.1c-0.2,0.2-0.5,0.3-0.7,0.4c-0.6,0.3-1.2,0.6-2.1,1.1l-7.7,3.9c-6.5,3.3-15.5,7.9-25.3,13
		s-18.9,9.6-25.5,12.8c-3.3,1.6-6,2.8-7.8,3.6l-2.1,0.9c-0.2,0.1-0.5,0.2-0.8,0.3c0.2-0.2,0.5-0.3,0.7-0.4l2.1-1.1l7.7-3.9
		c6.5-3.3,15.5-7.9,25.4-13s18.9-9.7,25.5-12.8c3.3-1.6,6-2.8,7.8-3.6l2.2-0.9C417.2,320.2,417.5,320.1,417.8,320.1z"/>
	<path class="st2" d="M111.6,72c4.1-0.6,8.2,0.6,11.4,3.2c3.2,2.6,5.7,5.8,7.4,9.5c3.5,7,4,16.1,3.4,23.9
		c-8.6-1.2-15.3-8.8-18.5-12.9C110.3,89.3,105.2,74.6,111.6,72"/>
	<path class="st2" d="M147.2,115.3c-3.2-3.3-4.4-8.1-3.1-12.6c1.4-4.4,4.4-8.1,8.5-10.2c1.8-1,4.1-1.7,6-0.9c1.8,0.9,3,2.6,3.1,4.7
		c0.1,2-0.4,3.9-1.3,5.7C157.5,108.1,153.7,113.4,147.2,115.3"/>
	<path class="st1" d="M150.5,134.7c-0.8-1.5-1.5-3.1-2-4.8c-0.6-1.8-1-3.7-1.2-5.6c-0.3-2.3-0.4-4.6-0.4-6.9c0-4.3,1.1-8.4,3.1-12.2
		c0.6-1.1,1.4-2.1,2.2-3.1c0.6-0.7,1-1,1.1-0.9s-1.3,1.5-2.7,4.3c-1.8,3.7-2.8,7.8-2.8,11.9c0,2.3,0.1,4.5,0.4,6.8
		c0.1,1.8,0.5,3.7,1,5.4C149.6,131.3,150.1,133,150.5,134.7z"/>
	<path class="st1" d="M116.5,82.8c0.6,0.6,1.1,1.3,1.6,2.1c1,1.4,2.4,3.3,4.2,5.8c3.5,4.9,8.2,11.8,13.3,19.5s9.4,14.8,12.5,20
		c1.5,2.6,2.8,4.7,3.6,6.2c0.5,0.7,0.9,1.5,1.2,2.4c-0.6-0.7-1.1-1.4-1.5-2.2l-3.8-6.1c-3.2-5.1-7.7-12.2-12.7-19.9L121.8,91l-4-6
		C117.3,84.3,116.8,83.5,116.5,82.8z"/>
	<path class="st2" d="M140.5,123.2c-7.5-6.2-17.5-8.5-26.9-6c-2.4,0.6-5,2-5.3,4.4s1.9,4.4,4.1,5.5c9.3,4.7,20.5,3.4,28.4-3.3"/>
	<path class="st1" d="M119.3,121.5c0.4-0.2,0.9-0.3,1.3-0.3c0.9-0.2,2.2-0.3,3.7-0.5c4.2-0.4,8.3,0,12.4,1.1
		c2.2,0.7,4.3,1.7,6.2,3.1c1.5,1.1,2.9,2.4,4,3.9c0.8,1,1.5,2,2.1,3.2c0.3,0.4,0.4,0.8,0.6,1.3c-0.2,0.1-1.1-1.7-3.1-4.1
		c-2.6-3.1-6.1-5.4-10-6.5s-8-1.5-12.1-1.3C122.7,121.5,121,121.5,119.3,121.5z"/>
</g>
<g id="morb3">
	<path class="st3" d="M376.9,145.1l9.9-33.7c0.9-3.1,4.2-4.8,7.3-4l33.7,9.9c3.1,0.9,4.8,4.2,4,7.3l-9.9,33.7
		c-0.9,3.1-4.2,4.8-7.3,4l-33.7-9.9C377.7,151.5,376,148.2,376.9,145.1z"/>
	<path class="st4" d="M78.4,166.8l42-9c3.4-0.7,6.8,1.5,7.6,4.9l9,42c0.7,3.4-1.5,6.8-4.9,7.6l-42,9c-3.4,0.7-6.8-1.5-7.6-4.9l-9-42
		C72.8,171,75,167.6,78.4,166.8z"/>
</g>
<g id="Pwoman">
	<rect x="275.6" y="89" class="st2" width="63.3" height="92.8"/>
	<path class="st5" d="M338.9,181.7c0,0,0-0.2,0-0.5s0-0.7,0-1.3c0-1.2,0-2.9,0-5.1c0-4.4,0-10.9-0.1-19.1c0-16.3-0.1-39.5-0.1-66.8
		l0.2,0.2h-63.3l0,0l0.3-0.3c0,34.9,0,67.1-0.1,92.8l-0.2-0.2l46,0.1l12.7,0.1h3.4C338.5,181.7,338.9,181.7,338.9,181.7l-1.1-0.1
		h-3.3l-12.7,0.1l-46.1,0.1h-0.2v-0.2c0-25.7,0-57.9,0-92.8v-0.1h0.3H339h0.2V89c0,27.4-0.1,50.6-0.1,67c0,8.1,0,14.6-0.1,19
		c0,2.2,0,3.9,0,5c0,0.6,0,1,0,1.3S338.9,181.7,338.9,181.7z"/>
	<path class="st5" d="M281.6,178.2c-4.4-2-6.2-7.2-4.2-11.6c0.9-1.9,2.4-3.4,4.3-4.2c0.6-0.2,1.1-0.5,1.5-1c0.6-0.7,0.3-1.8,0.4-2.7
		c0.2-2.5,2.2-4.5,4.7-4.6l14.2,5.6v15L281.6,178.2z"/>
	<path class="st4" d="M276.4,181.5c0,0,10.6-8.3,23.6-10.3s27.5,0,27.5,0c4,0.7,7.8,2.1,11.4,3.9l0.1,6.6l-14-0.1L276.4,181.5z"/>
	<path class="st5" d="M332.9,112.2c-1.4-3.8-7.8-7-11.3-8.9c-5.3-2.8-10.1-2-13,0.7c-5.5-4.3-12.7-8.4-19.4-6.4s-12,9.1-10.5,16
		c0.9,4,3.8,7.6,3.8,11.7c0,2.8-1.4,5.4-2.5,8s-1.9,5.6-0.8,8.2c1.1,2.4,3.6,3.8,5,6c1.1,1.8,1.5,4,2.2,6
		c2.8,7.4,11.8,11.3,19.5,9.7s14-7.6,17.5-14.8s4.4-15.2,4.6-23.1"/>
	<path class="st6" d="M327.6,173.4l-0.3-55.6l-23.4-7.1c-7-1-13.4,3.9-14.4,10.9c0,0.2,0,0.3-0.1,0.5c-0.8,8.6-1.5,19.5-0.7,26
		c1.6,12.8,11.4,14.8,11.4,14.8s-0.1,4.8-0.2,10.3c-0.1,3,0.9,6,2.7,8.4h22.3C326.6,179.2,327.6,176.4,327.6,173.4z"/>
	<path class="st7" d="M300.1,162.9c6,0.2,12-1.2,17.2-4.1c0,0-4.6,9.1-17.3,7.5L300.1,162.9z"/>
	<path class="st5" d="M308,123.5c0.2,0.5,1.9,0.3,4,0.6s3.7,0.9,4,0.5c0.1-0.2-0.1-0.7-0.8-1.2c-0.9-0.6-1.9-1-2.9-1.1
		c-1.1-0.2-2.1-0.1-3.1,0.3C308.3,122.9,308,123.2,308,123.5z"/>
	<path class="st5" d="M291.8,124.4c0.3,0.4,1.5,0,3,0s2.7,0.4,3,0c0.1-0.2,0-0.6-0.6-1c-1.5-1-3.4-1-4.8,0
		C291.8,123.8,291.6,124.2,291.8,124.4z"/>
	<path class="st7" d="M307.5,137.9c0,0.3,0.2,0.5,0.5,0.4c0.3,0,0.5-0.2,0.5-0.5s-0.2-0.5-0.5-0.5S307.5,137.6,307.5,137.9
		L307.5,137.9z"/>
	<path class="st7" d="M294.3,136c0,0.3,0.1,0.5,0.4,0.5s0.5-0.1,0.5-0.4V136c0-0.3-0.2-0.5-0.5-0.5
		C294.5,135.6,294.3,135.8,294.3,136z"/>
	<path class="st7" d="M291.7,137.3c0,0.3,0.2,0.5,0.5,0.4c0.3,0,0.5-0.2,0.5-0.5s-0.2-0.5-0.5-0.5C292,136.8,291.7,137,291.7,137.3
		L291.7,137.3z"/>
	<path class="st7" d="M290.9,135.4c0,0.3,0.2,0.5,0.5,0.5s0.5-0.2,0.5-0.5s-0.2-0.5-0.5-0.5l0,0
		C291.1,134.9,290.9,135.1,290.9,135.4z"/>
	<path class="st7" d="M309.8,139.9c0,0.3,0.2,0.5,0.5,0.5l0,0c0.3,0,0.5-0.2,0.5-0.5s-0.2-0.5-0.5-0.5S309.8,139.6,309.8,139.9
		C309.8,139.8,309.8,139.8,309.8,139.9z"/>
	<path class="st7" d="M311.4,137.9c0,0.3,0.2,0.5,0.5,0.4c0.3,0,0.5-0.2,0.4-0.5c0-0.3-0.2-0.5-0.5-0.4
		C311.6,137.4,311.4,137.7,311.4,137.9z"/>
	<path class="st5" d="M303.7,108.7c7-4.9,16.2-5.4,23.6-1.2c7.2,4.3,11.2,10.4,11.6,20.6V141c-0.4,5.9,0.9,9.3-2,10.3
		c-4,1.4-7,12.1-10.4,11.4c-4.2-3.3-4.3-5.2-4.4-11.9c-0.2-7.2-2.3-15.7,0.5-20.4c-9.3-2.8-16.7-11.7-18.1-21.8"/>
	<path class="st3" d="M290.7,97.2c0,0.1,1.1,0.1,2.8,0.5c0.5,0.1,0.9,0.2,1.4,0.4c0.5,0.2,1,0.4,1.5,0.6c1.1,0.5,2.2,1.2,3.2,1.9
		c1,0.8,1.9,1.6,2.8,2.6c0.4,0.4,0.7,0.9,1,1.3s0.5,0.8,0.8,1.2c0.9,1.5,1.2,2.6,1.3,2.6c0-0.2-0.1-0.5-0.2-0.7
		c-0.1-0.3-0.2-0.6-0.3-0.8c-0.2-0.4-0.3-0.7-0.5-1.1s-0.5-0.8-0.8-1.2c-0.3-0.4-0.6-0.9-1-1.3c-1.6-2-3.7-3.5-6.1-4.5
		c-0.5-0.2-1-0.4-1.6-0.6c-0.5-0.1-0.9-0.3-1.4-0.4c-0.4-0.1-0.8-0.1-1.2-0.2c-0.3,0-0.6-0.1-0.9-0.1
		C291.2,97.2,290.9,97.2,290.7,97.2z"/>
	<path class="st3" d="M283.2,146l-0.1-0.1l-0.3-0.3c-0.4-0.4-0.7-0.8-1-1.2c-0.5-0.6-0.9-1.4-1.2-2.1c-0.2-0.5-0.2-1-0.2-1.5
		c0.1-0.6,0.2-1.1,0.5-1.6c0.7-1.1,1.5-2.2,2.4-3.2c2-2.6,3.2-5.7,3.5-9c0.1-1.8,0.1-3.7,0-5.5c-0.2-1.8,0-3.6,0.3-5.4
		c0.8-3.1,2.9-5.8,5.9-7.2c1.2-0.6,2.5-0.9,3.8-1c1.9-0.1,3.9,0.2,5.6,1c0.5,0.2,0.9,0.5,1.4,0.8l0.3,0.2c0.1,0,0.1,0.1,0.1,0.1
		c-0.5-0.5-1.1-0.9-1.8-1.2c-1.8-0.9-3.7-1.3-5.7-1.1c-1.4,0.1-2.7,0.4-3.9,1c-3,1.5-5.2,4.1-6,7.3c-0.4,1.8-0.5,3.6-0.3,5.5
		c0.1,1.8,0.2,3.6,0,5.4c-0.3,3.2-1.5,6.3-3.4,8.9c-0.9,1-1.7,2.1-2.4,3.2c-0.3,0.5-0.5,1.1-0.5,1.7c0,0.5,0,1.1,0.2,1.6
		c0.3,0.8,0.7,1.5,1.3,2.2c0.4,0.5,0.8,0.9,1.1,1.2l0.3,0.3L283.2,146z"/>
	<path class="st5" d="M291.8,132.3c0.2,0.2,1.5-0.7,3.2-0.6s3,0.9,3.2,0.7s-0.1-0.5-0.6-0.9c-0.7-0.5-1.6-0.8-2.6-0.9
		c-0.9,0-1.8,0.2-2.6,0.8C291.9,131.8,291.7,132.2,291.8,132.3z"/>
	<path class="st5" d="M309.7,132.6c0.2,0.2,1.5-0.7,3.2-0.6s3,0.9,3.2,0.7s-0.1-0.5-0.7-0.9c-0.7-0.5-1.6-0.8-2.6-0.8
		c-0.9,0-1.8,0.2-2.6,0.8C309.8,132.1,309.6,132.5,309.7,132.6z"/>
	<path class="st5" d="M303.1,143.2c-0.9-0.3-1.9-0.5-2.8-0.6c-0.5-0.1-0.9-0.1-0.9-0.5c0-0.5,0.1-0.9,0.3-1.3
		c0.4-1.1,0.9-2.2,1.4-3.4c1.9-4.8,3.4-8.8,3.1-8.9s-1.9,3.8-3.9,8.6c-0.5,1.2-0.9,2.3-1.3,3.4c-0.3,0.5-0.4,1.2-0.3,1.8
		c0.1,0.3,0.4,0.6,0.7,0.7c0.2,0.1,0.5,0.1,0.8,0.1C301.1,143.2,302.1,143.3,303.1,143.2z"/>
	<path class="st5" d="M308.2,144.5c-0.3,0-0.3,1.9-2,3.2s-3.7,1.1-3.7,1.3c0,0.1,0.4,0.4,1.3,0.4c1.1,0,2.2-0.3,3.1-1
		c0.8-0.7,1.4-1.6,1.5-2.7C308.5,145,308.3,144.5,308.2,144.5z"/>
	<path class="st3" d="M338.3,124.6c-0.5,0.2-1,0.3-1.5,0.3c-1.4,0.2-2.7,0.3-4.1,0.3c-9.2,0-17.8-4.3-23.4-11.5
		c-0.8-1.1-1.6-2.2-2.3-3.4c-0.3-0.4-0.5-0.9-0.6-1.3c0.3,0.4,0.6,0.8,0.8,1.2c0.7,1.1,1.5,2.2,2.4,3.3c5.7,7,14.1,11.2,23.2,11.4
		c1.3,0,2.7,0,4-0.1C337.2,124.6,337.8,124.5,338.3,124.6z"/>
	<path class="st3" d="M334.8,153c0,0,0.6-0.7,1.4-2c1.2-1.9,2-3.9,2.4-6.1c0.5-3.2-0.1-6.6-1.8-9.4c-1-1.7-2.2-3.1-3.7-4.3
		c-1.6-1.3-3.5-2.2-5.5-2.9s-4-1.3-6-2c-1.8-0.7-3.6-1.6-5.2-2.7c-2.8-1.9-5.1-4.2-7-7c-1.3-1.9-2.3-3.9-3-6
		c-0.2-0.6-0.4-1.2-0.5-1.8c-0.1-0.2-0.1-0.4-0.1-0.6c0.1,0,0.2,0.8,0.8,2.3c1.9,5.2,5.5,9.6,10.1,12.7c1.6,1.1,3.4,1.9,5.2,2.6
		c1.9,0.7,3.9,1.2,6,2c2,0.7,3.9,1.7,5.6,3c1.5,1.2,2.8,2.8,3.8,4.5c1.7,2.9,2.3,6.3,1.8,9.7c-0.4,2.2-1.3,4.3-2.6,6.2
		c-0.3,0.5-0.7,1-1.1,1.4C335.1,152.7,334.9,152.9,334.8,153z"/>
	<path class="st3" d="M300.1,162.9c0,0-0.2,0.1-0.7,0.2c-0.6,0.1-1.3,0.2-1.9,0.1c-2.1-0.1-4.2-0.8-6-2s-3.3-2.8-4.2-4.7
		c-0.3-0.6-0.5-1.2-0.6-1.8c-0.1-0.2-0.1-0.5-0.1-0.7c0.1,0,0.3,1,1.1,2.4c1,1.8,2.4,3.4,4.1,4.5s3.7,1.8,5.8,2
		C299.1,163,300.1,162.8,300.1,162.9z"/>
</g>
<g id="Pman">
	<path class="st6" d="M312.5,216.3c-2.6-4-4.4-20.3-7.8-19.4c-4.4,1.2,1.8,18.5,2.2,20.1s-1.9,2.2-2.2,0.8
		c-0.4-2.1-5.3-22.5-9.6-20.9c-2.4,0.9-0.9,5.2-0.9,5.2s6.9,19.9,4.9,20.5s-6-10.9-7.4-15c-1.3-3.9-3.4-5.1-4.8-3.2
		s2.2,13.7,3.4,17.7s4.7,14.8-1.4,10.7s-12.2-4.9-14.1-4s-1.1,3.8,1.1,4.1c2.4,0.6,4.7,1.6,6.8,2.9c1.7,1,3.2,2.2,4.6,3.6
		c1.9,1.7,3.4,3.7,4.6,5.9c2,3.5,5.4,6,9.3,6.9l0,0l1.8,7.5l20.8-7.7l-3.5-14.1c-2.7-10.8-2.9-18.5-3.5-25.2
		c-1-10.7-2.4-10.6-3.6-10.2C310.9,203.2,315.1,220.1,312.5,216.3z"/>
	<path class="st7" d="M316.3,230c-0.9,0.4-1.9,1-2.7,1.5c-2,1.5-3.6,3.6-4.3,6c-0.2,0.7-0.4,1.5-0.4,2.2v0.4l-0.3-0.1
		c-1.8-0.8-3.8-1.3-5.7-1.5c-1.5-0.1-2.4-0.1-2.4-0.2c0.8-0.2,1.6-0.2,2.4-0.2c2,0.1,4.1,0.6,5.9,1.4l-0.4,0.2
		c0.1-0.8,0.2-1.6,0.5-2.4c0.4-1.4,1.1-2.6,2-3.8c0.7-0.9,1.6-1.7,2.6-2.3c0.7-0.4,1.4-0.7,2.1-1C315.8,230.1,316,230,316.3,230z"/>
	<path class="st7" d="M317.5,245.8c-2.9,2.4-6.4,3.8-10.2,4.2c0-0.1,2.4-0.7,5.2-1.8S317.4,245.7,317.5,245.8z"/>
	<path class="st5" d="M323.5,350.1c-4.6-0.4-8.9-2.3-12.4-5.2l-33.5-28.4l0.3,32.7l6.6,0.5l-1.9,24.3H178.8v-0.6
		c-6.4-5.4-10.3-13.6-11.7-22.6c-2.5-16.2-3.5-42.5-5.7-61.2c-1.6-13.1,1.3-30.1,13-36.3l9-3.6l0,0l28.4-11.2l36.5,1.7l24.3,6.8
		c6.8,2.6,12.6,10.7,16.7,16.6l20.3,28.2c-0.2-4.6-8.6-32.4-9.2-33.7l24.8-10.3c0,0,25.6,56.9,22.1,81.4
		C344.4,349.9,323.5,350.1,323.5,350.1z"/>
	<path class="st3" d="M277.8,349.7c0.2,0,0.5-13.8,0.6-30.7s0-30.8-0.2-30.8s-0.5,13.8-0.6,30.7S277.6,349.7,277.8,349.7z"/>
	<path class="st3" d="M190.5,359.8c0.2-1.2,0.5-2.3,1.1-3.3c2.6-5.2,7.1-9,12.6-10.8c1.1-0.4,2.3-0.6,3.5-0.6c0,0.1-1.3,0.4-3.3,1.1
		c-5.2,2-9.5,5.7-12.3,10.5C191.1,358.6,190.6,359.9,190.5,359.8z"/>
	<path class="st3" d="M319,334.8c-0.2-0.1-0.3-0.2-0.4-0.4c-0.4-0.4-0.8-0.7-1.1-1.1c-1.3-1.5-2.4-3.1-3.3-4.8
		c-1.3-2.6-2.3-5.3-2.9-8.1c-0.7-3.4-1.2-6.9-1.2-10.4c-0.1-3.7,0-7.3-0.1-10.5c-0.1-2.8-0.5-5.7-0.9-8.5c-0.4-2.4-0.8-4.3-1-5.7
		c-0.1-0.6-0.2-1.1-0.3-1.5c-0.1-0.2-0.1-0.4-0.1-0.5c0.1,0.2,0.1,0.3,0.2,0.5c0.1,0.3,0.2,0.9,0.4,1.5c0.3,1.3,0.8,3.2,1.2,5.6
		c0.5,2.8,0.9,5.7,1,8.5c0.1,3.2,0,6.8,0.2,10.5c0.1,3.5,0.5,7,1.2,10.4c0.6,2.8,1.5,5.5,2.8,8c0.9,1.7,1.9,3.3,3.1,4.8
		C318.5,334.2,319,334.8,319,334.8z"/>
	<path class="st5" d="M264.7,142.4c-6.3-1.7-12.6,4.1-19.1,3.1c-3.9-0.6-7-3.6-10.5-5.5c-5.3-2.7-12.6-3-17.9-0.1s-8.5,5.9-9,11.8
		c-4.9-2.6-12.8,3.7-15.3,9.7s-1.6,12,0.1,18.2c3.1,10.8,8.2,20.8,15.1,29.6c0.6,0.8,1.6,1.6,2.4,1.2c0.6-0.4,0.9-1.1,0.9-1.8
		c0.7-5.8-0.2-11.6-0.9-17.4s-1.1-11.7,0.5-17.3s5.8-10.8,11.5-12.1c4.2-1,8.6,0.2,12.4,2.2s7.2,4.7,10.9,7s7.7,4.1,12,4.2
		s8.8-2.1,10.5-6.1s-0.5-9.4-4.8-10.1c4.6-0.6,7.9-4.8,7.3-9.5C270.5,146.2,268,143.4,264.7,142.4L264.7,142.4z"/>
	<path class="st6" d="M202.1,181.1l8.4,64.7c1.4,10.6,11.1,18.1,21.7,16.7c0.3,0,0.6-0.1,1-0.1l0,0c10.2-1.8,17.1-11.4,15.8-21.6
		c-0.6-4.9-1.2-8.9-1.2-9.4c0,0,16.3-3.7,15.3-20.1c-0.5-7.9-2.7-24.3-4.9-39c-2.4-15.8-16.5-27.1-32.5-26l-1.6,0.1
		C207.1,148.5,199.4,164.1,202.1,181.1z"/>
	<path class="st7" d="M247.8,231.1c-7.6,0.7-15.1-0.9-21.8-4.6c0,0,5.9,11.5,22.2,8.9L247.8,231.1z"/>
	<path class="st5" d="M252.1,184c0.1,1.3-0.8,2.4-2.1,2.5c-1.2,0.2-2.4-0.7-2.5-1.9v-0.1c-0.1-1.3,0.8-2.4,2.1-2.5
		c1.2-0.2,2.4,0.7,2.5,1.9V184z"/>
	<path class="st5" d="M255.2,180.5c-0.3,0.3-2.1-0.9-4.7-0.7s-4.3,1.6-4.6,1.3c-0.1-0.1,0.1-0.7,0.9-1.3c1-0.8,2.3-1.3,3.6-1.4
		c1.3-0.1,2.6,0.2,3.7,0.9C255.1,179.9,255.4,180.4,255.2,180.5z"/>
	<path class="st5" d="M227.8,185.7c0.1,1.3-0.8,2.4-2.1,2.5c-1.2,0.2-2.4-0.7-2.6-1.9l0,0c-0.1-1.3,0.8-2.4,2.1-2.5
		C226.4,183.5,227.6,184.4,227.8,185.7C227.7,185.6,227.7,185.7,227.8,185.7z"/>
	<path class="st5" d="M230.4,182.7c-0.3,0.3-2.1-0.9-4.7-0.7s-4.3,1.6-4.6,1.3c-0.1-0.1,0.1-0.7,0.9-1.3c1-0.8,2.3-1.3,3.6-1.4
		c1.3-0.1,2.6,0.2,3.7,0.9C230.2,182,230.6,182.6,230.4,182.7z"/>
	<path class="st5" d="M240.9,200.8c0-0.1,1.5-0.5,4.1-1c0.6-0.1,1.2-0.3,1.3-0.7c0-0.7-0.2-1.3-0.6-1.9c-0.7-1.5-1.5-3.1-2.2-4.8
		c-3.1-6.8-5.4-12.4-5.2-12.6s3,5.3,6.2,12.1c0.8,1.7,1.5,3.3,2.2,4.8c0.5,0.8,0.6,1.6,0.5,2.5c-0.2,0.5-0.5,0.8-1,1
		c-0.4,0.1-0.7,0.2-1.1,0.2C242.5,200.8,240.9,201,240.9,200.8z"/>
	<path class="st5" d="M233.6,203.1c0.4-0.1,0.6,2.7,3.1,4.5s5.4,1.3,5.4,1.7c0,0.2-0.6,0.6-1.8,0.7c-1.6,0.1-3.2-0.3-4.5-1.2
		s-2.1-2.2-2.4-3.8C233.1,203.8,233.4,203.1,233.6,203.1z"/>
	<path class="st5" d="M230.4,172.8c-0.2,0.7-2.8,0.6-5.7,1.1s-5.3,1.5-5.7,1c-0.2-0.3,0.2-1,1.1-1.7c2.5-1.8,5.7-2.4,8.7-1.6
		C229.9,171.9,230.5,172.4,230.4,172.8z"/>
	<path class="st5" d="M253.8,173.3c-0.4,0.6-2.2,0.1-4.3,0.2s-3.8,0.7-4.3,0.1c-0.2-0.3,0-0.9,0.8-1.5c2-1.5,4.8-1.6,6.9-0.3
		C253.7,172.4,254,173,253.8,173.3z"/>
	<path class="st6" d="M204.3,193.2c-0.3-0.1-11.5-2.6-10.4,8.6s12.1,7.8,12.1,7.4S204.3,193.2,204.3,193.2z"/>
	<path class="st7" d="M202.2,205.4c0,0-0.2,0.1-0.5,0.3c-0.4,0.2-1,0.3-1.5,0.2c-1.2-0.3-2.4-2.1-2.7-4.1c-0.1-1,0-1.9,0.3-2.9
		c0.1-0.7,0.6-1.3,1.3-1.6c0.5-0.2,1,0,1.2,0.4c0.2,0.3,0.1,0.5,0.2,0.6s0.2-0.2,0.1-0.7c-0.1-0.3-0.3-0.5-0.5-0.7
		c-0.3-0.2-0.7-0.3-1.1-0.2c-0.9,0.3-1.6,1-1.9,1.9c-0.4,1-0.5,2.1-0.4,3.2c0.3,2.2,1.7,4.2,3.3,4.6c0.6,0.1,1.3-0.1,1.8-0.5
		C202.2,205.7,202.2,205.4,202.2,205.4z"/>
	<path class="st5" d="M261.5,168.6c-7.3,2.4-15.2,1.2-21.4-3.3c-4.2-3.1-7.7-7.8-12.8-9c-3.5-0.7-7.2,0.1-10.1,2.1
		c-2.9,2-5.4,4.6-7.2,7.6c3.8,8.1,2.3,17.6,0.7,26.4c-0.1,1-0.5,1.9-1.1,2.7c-1.3,1.1-3.3,0.5-4.6-0.7c-2-1.8-2.9-4.5-3.6-7.1
		c-1.6-5.9-2-12.1-1.1-18.2c0.9-6.1,3.5-11.8,7.6-16.5c5.3-5.6,12.6-9,20.4-9.4c7.7-0.3,15.3,1.8,21.8,6.1c3.1,1.8,5.6,4.4,7.5,7.5"
		/>
	<path class="st3" d="M269.7,146.1c0.1,0.3,0.1,0.7,0,1c-0.2,0.9-0.7,1.8-1.4,2.4c-1.2,1-2.6,1.6-4.1,1.7c-0.9,0.1-1.9,0.1-2.8,0
		c-1.1-0.1-2.1-0.5-3-1.1c-1-0.7-1.6-1.9-1.6-3.1c0.1-1.3,0.9-2.5,2.2-3c0.6-0.3,1.3-0.4,2-0.4s1.4,0.3,2,0.7c1.2,0.9,1.9,2.3,2,3.8
		c0.1,1.6-0.5,3.1-1.5,4.2c-1.1,1.2-2.4,2.1-3.9,2.6c-3.2,1-6.6,0.8-9.7-0.4c-3-1.1-6-2.6-8.7-4.4c-2.5-1.7-5.1-3.1-7.9-4.3
		c-2.5-1.1-5.2-1.5-7.9-1.3c-2.3,0.2-4.6,1-6.6,2.2c-2.9,1.8-5.3,4.3-7,7.3c-0.5,0.8-0.9,1.6-1.3,2.5c-0.1,0.3-0.3,0.6-0.4,0.9
		c0-0.1,0-0.2,0.1-0.2c0.1-0.1,0.1-0.4,0.2-0.7c0.3-0.9,0.7-1.7,1.2-2.6c1.6-3.1,4-5.7,7-7.5c2-1.3,4.3-2.1,6.7-2.4
		c2.8-0.2,5.5,0.2,8.1,1.3c2.8,1.2,5.5,2.6,8,4.3c2.7,1.8,5.5,3.2,8.5,4.4s6.3,1.3,9.3,0.4c1.4-0.5,2.7-1.3,3.7-2.4
		c1-1.1,1.5-2.4,1.4-3.9c0-1.3-0.7-2.6-1.7-3.4c-1-0.8-2.4-0.9-3.5-0.3c-1.1,0.4-1.9,1.4-2,2.6c0,1.1,0.6,2.1,1.4,2.8
		c0.8,0.6,1.8,1,2.8,1.1c0.9,0.1,1.8,0.1,2.7,0c1.5-0.1,2.9-0.6,4-1.5c0.7-0.6,1.2-1.4,1.5-2.3C269.6,146.7,269.7,146.4,269.7,146.1
		z"/>
	<path class="st3" d="M191.5,171.3c1.1,0.3,2.3,0.5,3.5,0.7c1.3,0,2.5-0.2,3.7-0.7c1.5-0.6,2.8-1.4,4.1-2.3c2.2-1.8,3.8-4.2,4.6-7
		c0.2-1.2,0.4-2.3,0.5-3.5c0.1,0.3,0.2,0.7,0.1,1c0,0.9-0.1,1.8-0.2,2.6c-0.6,2.9-2.2,5.5-4.6,7.4c-1.3,1-2.7,1.8-4.2,2.4
		c-1.3,0.5-2.6,0.7-3.9,0.6c-0.9-0.1-1.8-0.3-2.6-0.6C192.1,171.7,191.8,171.5,191.5,171.3z"/>
	<path class="st3" d="M192.6,179.4c0-0.1,1.3,0.1,3.5-0.2c5.6-0.7,10.4-4.3,12.5-9.6c0.8-2,1-3.3,1.1-3.3c0.1,0.3,0.1,0.6,0,0.9
		c-0.1,0.8-0.4,1.7-0.6,2.5c-2,5.5-7,9.4-12.9,9.8c-0.9,0.1-1.7,0.1-2.6,0C193.2,179.6,192.9,179.5,192.6,179.4z"/>
	<path class="st7" d="M222.8,194c-0.2,0.1-0.3,0-0.4-0.2c-0.1-0.2,0-0.3,0.2-0.4c0.2-0.1,0.3,0,0.4,0.2l0,0
		C223,193.8,222.9,193.9,222.8,194L222.8,194z"/>
	<path class="st7" d="M227.5,192.6c-0.2,0.1-0.4,0-0.5-0.1c-0.1-0.2,0-0.4,0.1-0.5c0.2-0.1,0.4,0,0.5,0.1v0.1
		C227.8,192.4,227.7,192.5,227.5,192.6L227.5,192.6z"/>
	<path class="st7" d="M230.8,192.3c-0.1,0-0.3-0.1-0.4-0.4s0-0.5,0.2-0.5s0.3,0.1,0.4,0.4S230.9,192.3,230.8,192.3z"/>
	<path class="st7" d="M225.4,196.9c-0.2,0-0.3-0.1-0.3-0.2s0.1-0.2,0.3-0.2s0.3,0.1,0.3,0.2S225.5,196.9,225.4,196.9z"/>
	<path class="st7" d="M229.7,195.6c-0.2,0-0.3-0.1-0.4-0.2c0-0.2,0.1-0.3,0.2-0.4c0.2,0,0.3,0.1,0.4,0.2l0,0
		C230,195.4,229.9,195.5,229.7,195.6L229.7,195.6z"/>
	<path class="st7" d="M252.6,191.2c-0.2,0.1-0.4,0-0.4-0.2c-0.1-0.2,0-0.4,0.2-0.4s0.4,0,0.4,0.2l0,0
		C252.8,191,252.7,191.2,252.6,191.2L252.6,191.2z"/>
	<path class="st7" d="M255.8,190.7c-0.1,0-0.3-0.1-0.3-0.3s0.1-0.3,0.2-0.4c0.1,0,0.3,0.1,0.3,0.3
		C256.1,190.5,256,190.6,255.8,190.7L255.8,190.7z"/>
	<path class="st7" d="M249.7,191.5c-0.1,0.1-0.3,0-0.3-0.1s0-0.3,0.1-0.3h0.1c0.1-0.1,0.3,0,0.3,0.1s0,0.3-0.1,0.3
		S249.7,191.5,249.7,191.5z"/>
	<path class="st7" d="M252.3,194.6c-0.1,0.1-0.3,0-0.4-0.1l0,0c-0.1-0.1-0.1-0.3,0.1-0.4c0.1-0.1,0.3-0.1,0.4,0.1c0,0,0,0,0,0.1
		C252.5,194.4,252.5,194.5,252.3,194.6z"/>
	<path class="st7" d="M255.1,193.9c-0.1,0-0.2-0.1-0.2-0.3l0,0c0-0.2,0.1-0.3,0.3-0.3s0.3,0.1,0.3,0.3
		C255.4,193.8,255.3,193.9,255.1,193.9L255.1,193.9z"/>
	<path class="st6" d="M284.2,352.8l-1.9,21.2h10l8.8-0.1c3.4,0.4,6.8,0.5,10.1,0.3c0.2,0,0.3,0,0.5-0.1c0.5-0.1,1-0.2,1.5-0.4l0,0
		l0,0c0.9-0.3,1.8-0.9,1.7-1.9c-0.4-3-2.2-3.3-2.2-3.3l-0.9-0.1l-0.1-0.3c1.4,0,2.5,0,3.1-0.1c0.3,0,0.5-0.1,0.5-0.1
		s3.5-0.4,3.3-2.3c-0.4-3-2.2-3.3-2.2-3.3l-2.9-0.2c1.4,0,2.6,0,3.2-0.1c0.3,0,0.5-0.1,0.5-0.1s3.5-0.4,3.3-2.3
		c-0.4-3-2.2-3.3-2.2-3.3l-2.4-0.2c1.1,0,2.1,0,2.6-0.1c0.3,0,0.5-0.1,0.5-0.1s3.5-0.4,3.3-2.3c-0.4-3-2.2-3.3-2.2-3.3
		s-5.6-0.4-9.4-0.5c0,0-4.3-3.9-6-3.7c-2.5,0.3-17.4,5.8-17.4,5.8L284.2,352.8z"/>
	<path class="st7" d="M303,367.8c0,0.2,2.2,0.4,5,0.5s4.9,0,4.9-0.2s-2.2-0.4-5-0.5S303,367.6,303,367.8z"/>
	<path class="st7" d="M302.9,361.8c0,0.2,3.1,0.4,7,0.6s7,0.1,7.1-0.1s-3.1-0.4-7-0.6S303,361.6,302.9,361.8z"/>
	<g class="st8">
		<path class="st7" d="M303.5,355.7c0,0.2,3.1,0.4,7,0.6s7.1,0.1,7.1-0.1s-3.1-0.4-7-0.6S303.5,355.5,303.5,355.7z"/>
	</g>
	<path class="st7" d="M312.2,349.9c-0.7,0.1-1.5,0.2-2.2,0.2l-5.4,0.2l-5.4,0.2c-0.7,0.1-1.5,0.1-2.2,0c0.7-0.2,1.5-0.3,2.2-0.3
		c1.4-0.1,3.3-0.3,5.4-0.4s4-0.1,5.4,0C310.7,349.7,311.4,349.8,312.2,349.9z"/>
	<path class="st3" d="M284.5,349.7h-0.4h-1l-3.9-0.2l-14.3-0.9c-12.1-0.7-28.8-1.8-47.3-2.7l-9.9-0.5h-0.2v-0.2
		c-0.1-4-0.5-7.9-0.8-11.7s-0.6-7.4-0.9-10.8c-0.6-6.8-1.1-12.9-1.6-18s-0.8-9.2-1-12c-0.1-1.4-0.2-2.5-0.3-3.2c0-0.4,0-0.6-0.1-0.8
		c0-0.1,0-0.2,0-0.3c0,0.1,0,0.2,0.1,0.3c0,0.2,0.1,0.5,0.1,0.8c0.1,0.8,0.2,1.9,0.4,3.2c0.3,2.8,0.7,6.9,1.2,12s1.1,11.2,1.7,18
		c0.3,3.4,0.6,7,1,10.8s0.7,7.7,0.8,11.7l-0.2-0.3l9.9,0.4c18.5,0.9,35.2,2,47.3,2.9l14.3,1l3.9,0.3l1,0.1L284.5,349.7z"/>
	<path class="st5" d="M346.4,374.1c0,0.1-41.6,0.3-93,0.3s-93-0.1-93-0.3s41.6-0.3,93-0.3S346.4,373.9,346.4,374.1z"/>
</g>
<g id="Phone">
	<path class="st5" d="M324.3,47l-142.8-0.1c-17.2,0-31.1,13.9-31.1,31.1c0,0,0,0,0,0.1L150.3,436c0,17.2,13.9,31.1,31.1,31.1
		l142.8,0.1c17.2,0,31.1-13.9,31.1-31.1l0,0l0.1-357.9C355.3,60.9,341.4,47,324.3,47z M345.8,430.8c0,12-9.8,21.8-21.8,21.7l0,0
		l-142.5-0.1c-12,0-21.8-9.8-21.8-21.8l0,0l0.1-349.4c0-12,9.7-21.8,21.8-21.8l0,0h34c3.8,0.1,6.8,3.2,6.7,7v5
		c-0.1,3.8,2.9,6.9,6.7,7h54c3.8-0.1,6.8-3.2,6.7-7v-5c-0.1-3.8,2.9-6.9,6.7-7h27.7c12,0,21.7,9.8,21.7,21.9l0,0L345.8,430.8z"/>
	<rect x="220.3" y="374.1" class="st5" width="74.1" height="33"/>
	<path class="st4" d="M345.8,374.1h-63.7c0,14-12,25.5-26.6,25.5s-26.6-11.4-26.6-25.5h-69v57.1c0,12,9.7,21.7,21.7,21.8l142.5,0.1
		c12,0,21.8-9.7,21.8-21.7l0,0L345.8,374.1z"/>
	<path class="st9" d="M246.3,425.6v5.6h-0.4V426h-1.4v-0.4H246.3z"/>
	<path class="st9" d="M247.7,428.4c0-1.8,0.9-2.9,2.2-2.9s2.2,1.1,2.2,2.9s-0.9,2.9-2.2,2.9S247.7,430.2,247.7,428.4z M251.7,428.4
		c0-1.6-0.7-2.5-1.8-2.5s-1.8,0.9-1.8,2.5s0.7,2.5,1.8,2.5S251.7,430,251.7,428.4z"/>
	<path class="st9" d="M253,427.3c0-0.2,0.1-0.4,0.3-0.4s0.4,0.1,0.4,0.3v0.1c0,0.2-0.1,0.4-0.3,0.4s-0.4-0.1-0.4-0.3
		C253,427.4,253,427.4,253,427.3z M253,430.9c0-0.2,0.1-0.4,0.3-0.4s0.4,0.1,0.4,0.3v0.1c0,0.2-0.1,0.4-0.3,0.4s-0.4-0.1-0.4-0.3
		V430.9z"/>
	<path class="st9" d="M254.6,428.4c0-1.8,0.9-2.9,2.2-2.9s2.2,1.1,2.2,2.9s-0.9,2.9-2.2,2.9S254.6,430.2,254.6,428.4z M258.6,428.4
		c0-1.6-0.7-2.5-1.8-2.5s-1.8,0.9-1.8,2.5s0.7,2.5,1.8,2.5S258.6,430,258.6,428.4z"/>
	<path class="st9" d="M264.6,429.6h-1.2v1.6H263v-1.6h-3.2v-0.3l3.1-3.8h0.5l-3,3.7h2.7v-1.4h0.4v1.4h1.2L264.6,429.6z"/>
	<path class="st10" d="M183.3,400.8H196c2.5,0,4.4,2,4.4,4.5V418c0,2.5-2,4.5-4.4,4.5h-12.7c-2.5,0-4.4-2-4.4-4.5v-12.7
		C178.8,402.8,180.8,400.8,183.3,400.8z"/>
	<path class="st9" d="M324.6,420.9h-12c-2.6,0-4.7-2.1-4.7-4.7v-12c0-2.6,2.1-4.7,4.7-4.7h12c2.6,0,4.7,2.1,4.7,4.7v12
		C329.3,418.8,327.2,420.9,324.6,420.9z M312.6,400c-2.3,0-4.2,1.9-4.2,4.2v12c0,2.3,1.9,4.2,4.2,4.2h12c2.3,0,4.2-1.9,4.2-4.2l0,0
		v-12c0-2.3-1.9-4.2-4.2-4.2H312.6z"/>
	<text transform="matrix(1 0 0 1 230.6938 416.3004)" class="st9 st11 st12">فيرش.د</text>
	<path class="st4" d="M193.6,408.1h-7.9c-0.6,0-1,0.4-1,1v5.2c0,0.6,0.4,1,1,1h0.7v2.3l2.7-2.3h4.6c0.6,0,1-0.4,1-1v-5.2
		C194.6,408.5,194.2,408.1,193.6,408.1L193.6,408.1z M187.1,412.7c-0.4,0-0.8-0.3-0.8-0.8c0-0.4,0.3-0.8,0.8-0.8
		c0.4,0,0.8,0.3,0.8,0.8l0,0C187.9,412.3,187.5,412.7,187.1,412.7L187.1,412.7L187.1,412.7z M189.5,412.7c-0.4,0-0.8-0.3-0.8-0.8
		s0.3-0.8,0.8-0.8c0.4,0,0.8,0.3,0.8,0.8l0,0C190.3,412.3,189.9,412.7,189.5,412.7z M192.1,412.7c-0.4,0-0.8-0.3-0.8-0.8
		s0.3-0.8,0.8-0.8c0.4,0,0.8,0.3,0.8,0.8l0,0C192.9,412.3,192.5,412.7,192.1,412.7L192.1,412.7z"/>
	<path class="st9" d="M315.9,413c-0.1,0-0.2-0.1-0.2-0.2c-0.6-5,3.1-6.6,3.2-6.6s0.3,0,0.3,0.1c0.1,0.1,0,0.3-0.1,0.3l0,0
		c-0.1,0.1-3.4,1.5-2.9,6.1C316.1,412.9,316.1,413,315.9,413L315.9,413L315.9,413z"/>
	<path class="st9" d="M315.9,413c-0.1,0-0.1,0-0.2-0.1l-1.6-1.9c-0.1-0.1-0.1-0.3,0-0.4l0,0c0.1-0.1,0.3-0.1,0.4,0l1.4,1.6l1.2-1.6
		c0.1-0.1,0.2-0.1,0.3,0l0,0c0.1,0.1,0.1,0.2,0,0.4l0,0l-1.4,1.9C316,413,315.9,413,315.9,413L315.9,413z"/>
	<path class="st9" d="M318.4,414.3c-0.1,0-0.2-0.1-0.2-0.2s0-0.3,0.1-0.3c0.1-0.1,3.4-1.5,2.9-6.1c0-0.1,0.1-0.3,0.2-0.3l0,0
		c0.1,0,0.3,0.1,0.3,0.2C322.2,412.7,318.5,414.3,318.4,414.3L318.4,414.3z"/>
	<path class="st9" d="M320,409.8c-0.1,0-0.1,0-0.1,0c-0.1-0.1-0.1-0.2,0-0.4l0,0l1.4-1.9c0-0.1,0.1-0.1,0.2-0.1l0,0
		c0.1,0,0.1,0,0.2,0.1l1.6,1.9c0.1,0.1,0.1,0.3,0,0.4s-0.3,0.1-0.4,0l-1.4-1.6l-1.2,1.6C320.2,409.8,320.1,409.8,320,409.8z"/>
	<circle class="st0" cx="189.5" cy="98.1" r="14.7"/>
	<path class="st5" d="M188.7,102.4c-0.1,0-0.1,0-0.2-0.1l-3.8-4c-0.1-0.1-0.1-0.3,0-0.3l3.8-4c0.1-0.1,0.3-0.1,0.4,0
		c0.1,0.1,0.1,0.3,0,0.4l0,0l-3.7,3.9l3.7,3.9c0.1,0.1,0.1,0.3,0,0.4l0,0C188.8,102.5,188.7,102.5,188.7,102.4z"/>
	<path class="st5" d="M195.4,98.4h-10.5c-0.1,0-0.2-0.1-0.2-0.2s0.1-0.2,0.2-0.2h10.5c0.1,0,0.2,0.1,0.2,0.2
		C195.6,98.3,195.5,98.4,195.4,98.4z"/>
	<circle class="st13" cx="321.5" cy="355.5" r="13.2"/>
	<path class="st9" d="M321.5,358.5c-1.3,0-2.4-1.1-2.4-2.4v-5.2c0-1.3,1.1-2.4,2.4-2.4s2.4,1.1,2.4,2.4v5.2
		C323.8,357.4,322.8,358.5,321.5,358.5z M321.5,349c-1,0-1.9,0.8-1.9,1.9v5.2c0,1,0.8,1.9,1.9,1.9c1,0,1.9-0.8,1.9-1.9v-5.2
		C323.3,349.8,322.5,349,321.5,349L321.5,349z"/>
	<path class="st9" d="M321.5,360.2c-1.3,0.1-2.5-0.4-3.4-1.3c-1-1.3-1.4-2.8-1.3-4.4c0-0.1,0.1-0.2,0.3-0.2s0.2,0.1,0.2,0.3l0,0
		c-0.1,1.4,0.3,2.9,1.1,4c0.8,0.8,1.9,1.2,3,1.2c1.1,0.1,2.2-0.4,3-1.2c0.9-1.1,1.4-2.6,1.4-4.1c0-0.1,0.1-0.2,0.2-0.2
		s0.3,0.1,0.3,0.2l0,0c0.1,1.6-0.5,3.2-1.5,4.4C323.9,359.7,322.7,360.2,321.5,360.2z"/>
	<path class="st9" d="M321.5,363.8c-0.1,0-0.2-0.1-0.2-0.2v-3.7c0-0.1,0.1-0.2,0.2-0.2s0.2,0.1,0.2,0.2v3.7
		C321.7,363.7,321.6,363.8,321.5,363.8z"/>
	<ellipse class="st13" cx="255.4" cy="372.9" rx="23.3" ry="23.3"/>
	<path class="st9" d="M253.4,366.5c-1.7-1.4-4.2-1.1-5.6,0.6c-0.1,0.2-0.3,0.4-0.4,0.6c-0.6,1-0.3,2.3,0.6,3
		c2.1,2.1,6.6,6.3,8.6,8.1c1.1,1,2.5,1.5,4,1.3c1.1-0.2,2.2-0.8,2.8-1.8c2.2-3-3.1-5.4-3.1-5.4l-2.3,2.4l-5.4-5.2l2.4-2.6
		L253.4,366.5z"/>
</g>
<g id="nwadr">
	<circle class="st14" cx="250" cy="184.3" r="8.9"/>
	<circle class="st14" cx="225.1" cy="186" r="8.9"/>
	<line class="st14" x1="233.9" y1="185" x2="241.1" y2="185"/>
	<line class="st14" x1="216" y1="185.8" x2="197.7" y2="192.3"/>
</g>
<g id="idk">
	<path class="st15" d="M416.4,124.3l4,1.2c0.3,0.1,0.5,0.4,0.4,0.7l-8,26.9c-0.1,0.3-0.4,0.5-0.7,0.4l-23.3-6.9
		c-0.3-0.1-0.5-0.4-0.4-0.7l8-26.9c0.1-0.3,0.4-0.5,0.7-0.4l4.7,1.4"/>
	<path class="st15" d="M410.5,149.7l-18.4-5.4c-0.3-0.1-0.5-0.4-0.4-0.7l6.2-21c0.1-0.3,0.4-0.5,0.7-0.4l18.4,5.4
		c0.3,0.1,0.5,0.4,0.4,0.7l-6.2,21C411.1,149.7,410.8,149.8,410.5,149.7z"/>
	<path class="st9" d="M413.4,133.7l-5.1-1.5c-0.3-0.1-0.5-0.4-0.4-0.7l0.1-0.3c0.1-0.3,0.4-0.5,0.7-0.4l5.1,1.5
		c0.3,0.1,0.5,0.4,0.4,0.7l-0.1,0.3C414,133.6,413.6,133.8,413.4,133.7z"/>
	<path class="st9" d="M410.6,141.5l-5.1-1.5c-0.3-0.1-0.5-0.4-0.4-0.7l0.1-0.3c0.1-0.3,0.4-0.5,0.7-0.4l5.1,1.5
		c0.3,0.1,0.5,0.4,0.4,0.7l-0.1,0.3C411.2,141.4,410.9,141.6,410.6,141.5z"/>
	<path class="st15" d="M402.3,123.4"/>
	<path class="st15" d="M401.3,119.8c5.6-3,12.5-0.9,15.5,4.7"/>
	<polyline class="st15" points="399.2,130.1 399.2,132.3 404.9,130.1 	"/>
	<polyline class="st15" points="397.5,137.1 397.5,139.3 403.2,137.1 	"/>
	<path class="st15" d="M397.3,137.1"/>
	<path class="st9" d="M412.7,136.1l-6.9-2c-0.3-0.1-0.5-0.4-0.4-0.7l0.1-0.3c0.1-0.3,0.4-0.5,0.7-0.4l6.9,2c0.3,0.1,0.5,0.4,0.4,0.7
		l-0.1,0.3C413.3,136,412.9,136.1,412.7,136.1z"/>
	<path class="st9" d="M410.1,143.5l-6.9-2c-0.3-0.1-0.5-0.4-0.4-0.7l0.1-0.3c0.1-0.3,0.4-0.5,0.7-0.4l6.9,2c0.3,0.1,0.5,0.4,0.4,0.7
		l-0.1,0.3C410.6,143.4,410.4,143.5,410.1,143.5z"/>
</g>
<g id="Chat">
	<path class="st9" d="M121.8,199.2l-28.3,6.2c-3.7,0.8-7.4-1.6-8.2-5.2l-2.8-12.7c-0.8-3.7,1.6-7.4,5.2-8.2l28.3-6.2
		c3.7-0.8,7.4,1.6,8.2,5.2l2.8,12.7C127.8,194.8,125.5,198.4,121.8,199.2z"/>
	<polyline class="st9" points="123,198.5 131.2,200 124.8,190.8 	"/>
	<line class="st16" x1="88.1" y1="185.9" x2="113" y2="180.5"/>
	<line class="st16" x1="89.3" y1="191" x2="114.1" y2="185.6"/>
	<line class="st16" x1="90.4" y1="196.2" x2="107.4" y2="192.5"/>
</g>
</svg>
